<?xml version="1.0" encoding="UTF-8" standalone="no"?><svg xmlns="http://www.w3.org/2000/svg" xmlns:xlink="http://www.w3.org/1999/xlink" contentStyleType="text/css" height="198px" preserveAspectRatio="none" style="width:331px;height:198px;background:#FFFFFF;" version="1.1" viewBox="0 0 331 198" width="331px" zoomAndPan="magnify"><defs/><g><!--MD5=[7340ddc93ee3d3f5fef34806a115f504]
class Graphic--><g id="elem_Graphic"><rect codeLine="1" fill="#F1F1F1" height="48" id="Graphic" rx="2.5" ry="2.5" style="stroke:#181818;stroke-width:0.5;" width="82" x="7" y="21"/><ellipse cx="22" cy="37" fill="#ADD1B2" rx="11" ry="11" style="stroke:#181818;stroke-width:1.0;"/><path d="M24.7656,32.875 Q24.9219,32.6563 25.1094,32.5469 Q25.2969,32.4375 25.5156,32.4375 Q25.8906,32.4375 26.125,32.7031 Q26.3594,32.9531 26.3594,33.5625 L26.3594,35.0156 Q26.3594,35.625 26.125,35.8906 Q25.8906,36.1563 25.5156,36.1563 Q25.1719,36.1563 24.9688,35.9531 Q24.7656,35.7656 24.6563,35.25 Q24.6094,34.8906 24.4219,34.7031 Q24.0938,34.3281 23.4844,34.1094 Q22.875,33.8906 22.25,33.8906 Q21.4844,33.8906 20.8438,34.2188 Q20.2188,34.5469 19.7188,35.2969 Q19.2344,36.0469 19.2344,37.0781 L19.2344,38.1719 Q19.2344,39.4063 20.125,40.2344 Q21.0156,41.0469 22.6094,41.0469 Q23.5469,41.0469 24.2031,40.7969 Q24.5938,40.6406 25.0156,40.2031 Q25.2813,39.9375 25.4219,39.8594 Q25.5781,39.7813 25.7813,39.7813 Q26.1094,39.7813 26.3594,40.0469 Q26.625,40.2969 26.625,40.6406 Q26.625,40.9844 26.2813,41.3906 Q25.7813,41.9688 24.9844,42.2969 Q23.9063,42.75 22.6094,42.75 Q21.0938,42.75 19.8906,42.125 Q18.9063,41.625 18.2188,40.5625 Q17.5313,39.4844 17.5313,38.2031 L17.5313,37.0469 Q17.5313,35.7188 18.1406,34.5781 Q18.7656,33.4219 19.8594,32.8125 Q20.9531,32.1875 22.1875,32.1875 Q22.9219,32.1875 23.5625,32.3594 Q24.2188,32.5156 24.7656,32.875 Z " fill="#000000"/><text fill="#000000" font-family="sans-serif" font-size="14" lengthAdjust="spacing" textLength="50" x="36" y="42.7285">Graphic</text><line style="stroke:#181818;stroke-width:0.5;" x1="8" x2="88" y1="53" y2="53"/><line style="stroke:#181818;stroke-width:0.5;" x1="8" x2="88" y1="61" y2="61"/></g><!--MD5=[426e75666daf533f17226ff4c87e20fd]
class Shape--><g id="elem_Shape"><rect codeLine="2" fill="#F1F1F1" height="76.3125" id="Shape" rx="2.5" ry="2.5" style="stroke:#181818;stroke-width:0.5;" width="90" x="124" y="7"/><ellipse cx="139" cy="28.3516" fill="#B4A7E5" rx="11" ry="11" style="stroke:#181818;stroke-width:1.0;"/><path d="M139.9531,24.9922 L139.9531,31.6484 L141.6719,31.6484 Q142.2813,31.6484 142.5469,31.8828 Q142.8125,32.1172 142.8125,32.5078 Q142.8125,32.8828 142.5469,33.1172 Q142.2813,33.3516 141.6719,33.3516 L136.5313,33.3516 Q135.9219,33.3516 135.6563,33.1172 Q135.3906,32.8828 135.3906,32.4922 Q135.3906,32.1172 135.6563,31.8828 Q135.9219,31.6484 136.5313,31.6484 L138.25,31.6484 L138.25,24.9922 L136.5313,24.9922 Q135.9219,24.9922 135.6563,24.7578 Q135.3906,24.5234 135.3906,24.1328 Q135.3906,23.7578 135.6563,23.5234 Q135.9219,23.2891 136.5313,23.2891 L141.6719,23.2891 Q142.2813,23.2891 142.5469,23.5234 Q142.8125,23.7578 142.8125,24.1328 Q142.8125,24.5234 142.5469,24.7578 Q142.2813,24.9922 141.6719,24.9922 L139.9531,24.9922 Z " fill="#000000"/><text fill="#000000" font-family="sans-serif" font-size="12" font-style="italic" lengthAdjust="spacing" textLength="62" x="151" y="24.457">«Interface»</text><text fill="#000000" font-family="sans-serif" font-size="14" font-style="italic" lengthAdjust="spacing" textLength="41" x="161.5" y="41.627">Shape</text><line style="stroke:#181818;stroke-width:0.5;" x1="125" x2="213" y1="49.7031" y2="49.7031"/><line style="stroke:#181818;stroke-width:0.5;" x1="125" x2="213" y1="57.7031" y2="57.7031"/><text fill="#000000" font-family="sans-serif" font-size="14" lengthAdjust="spacing" textLength="40" x="130" y="76.2363">draw()</text></g><!--MD5=[a7f9118cae7621dd25d25149752faef0]
class Circle--><g id="elem_Circle"><rect codeLine="5" fill="#F1F1F1" height="48" id="Circle" rx="2.5" ry="2.5" style="stroke:#181818;stroke-width:0.5;" width="68" x="24" y="143"/><ellipse cx="39" cy="159" fill="#ADD1B2" rx="11" ry="11" style="stroke:#181818;stroke-width:1.0;"/><path d="M41.7656,154.875 Q41.9219,154.6563 42.1094,154.5469 Q42.2969,154.4375 42.5156,154.4375 Q42.8906,154.4375 43.125,154.7031 Q43.3594,154.9531 43.3594,155.5625 L43.3594,157.0156 Q43.3594,157.625 43.125,157.8906 Q42.8906,158.1563 42.5156,158.1563 Q42.1719,158.1563 41.9688,157.9531 Q41.7656,157.7656 41.6563,157.25 Q41.6094,156.8906 41.4219,156.7031 Q41.0938,156.3281 40.4844,156.1094 Q39.875,155.8906 39.25,155.8906 Q38.4844,155.8906 37.8438,156.2188 Q37.2188,156.5469 36.7188,157.2969 Q36.2344,158.0469 36.2344,159.0781 L36.2344,160.1719 Q36.2344,161.4063 37.125,162.2344 Q38.0156,163.0469 39.6094,163.0469 Q40.5469,163.0469 41.2031,162.7969 Q41.5938,162.6406 42.0156,162.2031 Q42.2813,161.9375 42.4219,161.8594 Q42.5781,161.7813 42.7813,161.7813 Q43.1094,161.7813 43.3594,162.0469 Q43.625,162.2969 43.625,162.6406 Q43.625,162.9844 43.2813,163.3906 Q42.7813,163.9688 41.9844,164.2969 Q40.9063,164.75 39.6094,164.75 Q38.0938,164.75 36.8906,164.125 Q35.9063,163.625 35.2188,162.5625 Q34.5313,161.4844 34.5313,160.2031 L34.5313,159.0469 Q34.5313,157.7188 35.1406,156.5781 Q35.7656,155.4219 36.8594,154.8125 Q37.9531,154.1875 39.1875,154.1875 Q39.9219,154.1875 40.5625,154.3594 Q41.2188,154.5156 41.7656,154.875 Z " fill="#000000"/><text fill="#000000" font-family="sans-serif" font-size="14" lengthAdjust="spacing" textLength="36" x="53" y="164.7285">Circle</text><line style="stroke:#181818;stroke-width:0.5;" x1="25" x2="91" y1="175" y2="175"/><line style="stroke:#181818;stroke-width:0.5;" x1="25" x2="91" y1="183" y2="183"/></g><!--MD5=[40b067e448d061f8c1f714bff454de58]
class Triangle--><g id="elem_Triangle"><rect codeLine="6" fill="#F1F1F1" height="48" id="Triangle" rx="2.5" ry="2.5" style="stroke:#181818;stroke-width:0.5;" width="84" x="127" y="143"/><ellipse cx="142" cy="159" fill="#ADD1B2" rx="11" ry="11" style="stroke:#181818;stroke-width:1.0;"/><path d="M144.7656,154.875 Q144.9219,154.6563 145.1094,154.5469 Q145.2969,154.4375 145.5156,154.4375 Q145.8906,154.4375 146.125,154.7031 Q146.3594,154.9531 146.3594,155.5625 L146.3594,157.0156 Q146.3594,157.625 146.125,157.8906 Q145.8906,158.1563 145.5156,158.1563 Q145.1719,158.1563 144.9688,157.9531 Q144.7656,157.7656 144.6563,157.25 Q144.6094,156.8906 144.4219,156.7031 Q144.0938,156.3281 143.4844,156.1094 Q142.875,155.8906 142.25,155.8906 Q141.4844,155.8906 140.8438,156.2188 Q140.2188,156.5469 139.7188,157.2969 Q139.2344,158.0469 139.2344,159.0781 L139.2344,160.1719 Q139.2344,161.4063 140.125,162.2344 Q141.0156,163.0469 142.6094,163.0469 Q143.5469,163.0469 144.2031,162.7969 Q144.5938,162.6406 145.0156,162.2031 Q145.2813,161.9375 145.4219,161.8594 Q145.5781,161.7813 145.7813,161.7813 Q146.1094,161.7813 146.3594,162.0469 Q146.625,162.2969 146.625,162.6406 Q146.625,162.9844 146.2813,163.3906 Q145.7813,163.9688 144.9844,164.2969 Q143.9063,164.75 142.6094,164.75 Q141.0938,164.75 139.8906,164.125 Q138.9063,163.625 138.2188,162.5625 Q137.5313,161.4844 137.5313,160.2031 L137.5313,159.0469 Q137.5313,157.7188 138.1406,156.5781 Q138.7656,155.4219 139.8594,154.8125 Q140.9531,154.1875 142.1875,154.1875 Q142.9219,154.1875 143.5625,154.3594 Q144.2188,154.5156 144.7656,154.875 Z " fill="#000000"/><text fill="#000000" font-family="sans-serif" font-size="14" lengthAdjust="spacing" textLength="52" x="156" y="164.7285">Triangle</text><line style="stroke:#181818;stroke-width:0.5;" x1="128" x2="210" y1="175" y2="175"/><line style="stroke:#181818;stroke-width:0.5;" x1="128" x2="210" y1="183" y2="183"/></g><!--MD5=[5655ee3e2a0d028d03fe20f829576392]
class Square--><g id="elem_Square"><rect codeLine="7" fill="#F1F1F1" height="48" id="Square" rx="2.5" ry="2.5" style="stroke:#181818;stroke-width:0.5;" width="78" x="246" y="143"/><ellipse cx="261" cy="159" fill="#ADD1B2" rx="11" ry="11" style="stroke:#181818;stroke-width:1.0;"/><path d="M263.7656,154.875 Q263.9219,154.6563 264.1094,154.5469 Q264.2969,154.4375 264.5156,154.4375 Q264.8906,154.4375 265.125,154.7031 Q265.3594,154.9531 265.3594,155.5625 L265.3594,157.0156 Q265.3594,157.625 265.125,157.8906 Q264.8906,158.1563 264.5156,158.1563 Q264.1719,158.1563 263.9688,157.9531 Q263.7656,157.7656 263.6563,157.25 Q263.6094,156.8906 263.4219,156.7031 Q263.0938,156.3281 262.4844,156.1094 Q261.875,155.8906 261.25,155.8906 Q260.4844,155.8906 259.8438,156.2188 Q259.2188,156.5469 258.7188,157.2969 Q258.2344,158.0469 258.2344,159.0781 L258.2344,160.1719 Q258.2344,161.4063 259.125,162.2344 Q260.0156,163.0469 261.6094,163.0469 Q262.5469,163.0469 263.2031,162.7969 Q263.5938,162.6406 264.0156,162.2031 Q264.2813,161.9375 264.4219,161.8594 Q264.5781,161.7813 264.7813,161.7813 Q265.1094,161.7813 265.3594,162.0469 Q265.625,162.2969 265.625,162.6406 Q265.625,162.9844 265.2813,163.3906 Q264.7813,163.9688 263.9844,164.2969 Q262.9063,164.75 261.6094,164.75 Q260.0938,164.75 258.8906,164.125 Q257.9063,163.625 257.2188,162.5625 Q256.5313,161.4844 256.5313,160.2031 L256.5313,159.0469 Q256.5313,157.7188 257.1406,156.5781 Q257.7656,155.4219 258.8594,154.8125 Q259.9531,154.1875 261.1875,154.1875 Q261.9219,154.1875 262.5625,154.3594 Q263.2188,154.5156 263.7656,154.875 Z " fill="#000000"/><text fill="#000000" font-family="sans-serif" font-size="14" lengthAdjust="spacing" textLength="46" x="275" y="164.7285">Square</text><line style="stroke:#181818;stroke-width:0.5;" x1="247" x2="323" y1="175" y2="175"/><line style="stroke:#181818;stroke-width:0.5;" x1="247" x2="323" y1="183" y2="183"/></g><!--MD5=[1b252dfc4300d25cc7487b54de9ff1e4]
link Graphic to Shape--><g id="link_Graphic_Shape"><path codeLine="9" d="M89.12,45 C98.95,45 108.78,45 118.61,45 " fill="none" id="Graphic-to-Shape" style="stroke:#181818;stroke-width:1.0;"/><polygon fill="#181818" points="123.76,45,114.76,41,118.76,45,114.76,49,123.76,45" style="stroke:#181818;stroke-width:1.0;"/></g><!--MD5=[d637a7d0c5b779627461b5a6979d5756]
reverse link Shape to Circle--><g id="link_Shape_Circle"><path codeLine="10" d="M120.53,98.4 C106.21,113.88 91.26,130.04 79.57,142.68 " fill="none" id="Shape-backto-Circle" style="stroke:#181818;stroke-width:1.0;stroke-dasharray:7.0,7.0;"/><polygon fill="none" points="115.77,93.24,134.49,83.31,126.05,102.75,115.77,93.24" style="stroke:#181818;stroke-width:1.0;"/></g><!--MD5=[c0c2beb63eebe7551e7e17172f8efeb7]
reverse link Shape to Triangle--><g id="link_Shape_Triangle"><path codeLine="11" d="M169,103.74 C169,117.54 169,131.49 169,142.68 " fill="none" id="Shape-backto-Triangle" style="stroke:#181818;stroke-width:1.0;stroke-dasharray:7.0,7.0;"/><polygon fill="none" points="162,103.31,169,83.31,176,103.31,162,103.31" style="stroke:#181818;stroke-width:1.0;"/></g><!--MD5=[d4ca5a4026589bf67f913f07d54add2c]
reverse link Shape to Square--><g id="link_Shape_Square"><path codeLine="12" d="M219.19,97.92 C234.29,113.54 250.11,129.91 262.46,142.68 " fill="none" id="Shape-backto-Square" style="stroke:#181818;stroke-width:1.0;stroke-dasharray:7.0,7.0;"/><polygon fill="none" points="213.93,102.56,205.07,83.31,224,92.83,213.93,102.56" style="stroke:#181818;stroke-width:1.0;"/></g><!--MD5=[ba07017ab99ba1c7fb6600f759b1f554]
@startuml name
class Graphic
interface Shape <<Interface>> {
  draw()
}
class Circle
class Triangle
class Square

Graphic -> Shape
Shape <|.. Circle
Shape <|.. Triangle
Shape <|.. Square
@enduml

PlantUML version 1.2022.7(Mon Aug 22 19:01:30 CEST 2022)
(GPL source distribution)
Java Runtime: Java(TM) SE Runtime Environment
JVM: Java HotSpot(TM) 64-Bit Server VM
Default Encoding: UTF-8
Language: de
Country: DE
--></g></svg>